<svg width="54" height="54" viewBox="0 0 54 54" fill="none" xmlns="http://www.w3.org/2000/svg">
<path d="M54 46.3979C54.0035 48.3926 53.2144 50.307 51.8064 51.7199C50.3984 53.1329 48.4867 53.9286 46.492 53.9321L7.60215 54C5.60742 54.0035 3.693 53.2144 2.28006 51.8064C0.867107 50.3984 0.0713658 48.4867 0.0678853 46.492L1.14624e-05 7.60215C-0.00346857 5.60742 0.785598 3.693 2.19362 2.28006C3.60165 0.867108 5.5133 0.0713653 7.50803 0.0678849L46.3978 1.14624e-05C48.3926 -0.00346857 50.307 0.785597 51.7199 2.19362C53.1329 3.60165 53.9286 5.5133 53.9321 7.50803L54 46.3979ZM22.5509 38.1729C19.6289 38.1126 16.7843 37.2418 14.0171 35.5607C13.9884 35.5429 13.9542 35.5361 13.9206 35.5414C13.887 35.5468 13.8562 35.564 13.8337 35.59L10.5219 39.3591C10.5087 39.3745 10.4987 39.3923 10.4926 39.4116C10.4865 39.4309 10.4844 39.4512 10.4864 39.4712C10.4885 39.4911 10.4947 39.5104 10.5046 39.5278C10.5145 39.5451 10.5279 39.5602 10.544 39.5719C12.1485 40.7378 13.841 41.7072 15.6217 42.4801C19.4552 44.1417 23.4518 44.6855 27.6115 44.1115C30.7911 43.6713 33.8053 42.7149 36.654 41.2425C40.2348 39.3918 43.1136 36.7698 45.2905 33.3765C46.639 31.273 47.6858 28.9926 48.431 26.5353C48.4357 26.5196 48.4369 26.503 48.4347 26.4868C48.4325 26.4705 48.4268 26.4548 48.418 26.4408C48.4093 26.4267 48.3976 26.4146 48.3839 26.4052C48.3701 26.3957 48.3545 26.3892 48.3381 26.3861L43.275 25.4591C43.2344 25.4517 43.1925 25.4587 43.1567 25.4788C43.1209 25.499 43.0936 25.5309 43.0794 25.5691C41.6591 29.2837 39.342 32.1918 36.1281 34.2937C32.0174 36.9809 27.4916 38.274 22.5509 38.1729Z" fill="#F6B200"/>
</svg>
