<svg width="45" height="54" viewBox="0 0 45 54" fill="none" xmlns="http://www.w3.org/2000/svg">
<path d="M8.73958 0.012888C9.28998 0.00848641 9.28998 0.00848641 9.85149 0.00399587C11.0541 -0.00332407 12.2562 0.00148591 13.4588 0.00716434C14.2985 0.00603538 15.1382 0.00440941 15.9779 0.00230943C17.9567 -0.000467186 19.9354 0.00536104 21.9141 0.014284C23.7159 0.0214829 25.5175 0.0163763 27.3192 0.00819421C29.2745 -0.00032775 31.2297 0.000582113 33.185 0.00548428C34.0147 0.0066012 34.8443 0.0052311 35.6739 0.00133206C36.8316 -0.00291723 37.9888 0.00355546 39.1464 0.012888C39.489 0.00949828 39.8316 0.00610852 40.1846 0.00261605C41.765 0.0262393 42.5142 0.0462799 43.8069 1.02023C44.5492 2.06975 44.6475 2.63687 44.6545 3.91366C44.6566 4.29358 44.6588 4.6735 44.661 5.06494C44.6545 5.45868 44.6481 5.85241 44.6414 6.25808C44.6479 6.65182 44.6543 7.04556 44.661 7.45122C44.6578 8.02111 44.6578 8.02111 44.6545 8.6025C44.6526 8.94789 44.6507 9.29327 44.6488 9.64912C44.3461 10.9942 43.8402 11.4396 42.7575 12.2866C41.7693 12.5211 40.812 12.4988 39.8004 12.4767C39.359 12.4771 39.359 12.4771 38.9087 12.4774C37.939 12.4763 36.9699 12.4633 36.0003 12.4501C35.3269 12.447 34.6534 12.4446 33.98 12.4429C32.2098 12.4366 30.4397 12.4201 28.6696 12.4016C26.8624 12.3844 25.0551 12.3768 23.2479 12.3684C19.7035 12.3504 16.1592 12.3218 12.6149 12.2866C12.6149 13.8339 12.6149 15.3812 12.6149 16.9754C11.3992 16.9754 10.1834 16.9754 8.93083 16.9754C8.93083 14.2124 8.93083 11.4493 8.93083 8.6025C19.32 8.6025 29.7091 8.6025 40.4131 8.6025C40.4131 7.05518 40.4131 5.50787 40.4131 3.91366C35.8947 3.92639 31.3764 3.94625 26.8581 3.97525C24.7602 3.9885 22.6623 3.99927 20.5643 4.00442C18.5403 4.00949 16.5165 4.021 14.4926 4.03701C13.7197 4.04199 12.9468 4.04463 12.1739 4.04491C11.0929 4.0457 10.0122 4.05474 8.93116 4.06575C8.61028 4.06406 8.2894 4.06238 7.95879 4.06064C6.22813 4.07859 6.22813 4.07859 4.71299 4.84288C4.2066 5.64425 4.07418 6.04174 4.07396 6.97959C4.07082 7.25008 4.06768 7.52058 4.06444 7.79927C4.07008 8.23313 4.07008 8.23313 4.07584 8.67577C4.07535 8.97548 4.07487 9.2752 4.07436 9.58399C4.07492 10.2168 4.07879 10.8497 4.08574 11.4825C4.09543 12.4507 4.09264 13.4182 4.08827 14.3864C4.09036 15.0017 4.09317 15.617 4.09677 16.2323C4.0953 16.6662 4.0953 16.6662 4.09379 17.1088C4.09804 17.3793 4.10229 17.6498 4.10667 17.9285C4.10848 18.1654 4.11029 18.4024 4.11215 18.6465C4.28609 19.5485 4.62459 19.9871 5.24674 20.6595C5.96636 20.8569 5.96636 20.8569 6.78261 20.8221C7.09767 20.8243 7.41274 20.8266 7.73735 20.8289C8.08239 20.8245 8.42743 20.8202 8.78292 20.8158C9.14678 20.8166 9.51064 20.8173 9.88552 20.8181C10.6766 20.819 11.4678 20.8168 12.2589 20.812C13.5101 20.8047 14.7611 20.8059 16.0123 20.8095C19.1201 20.8168 22.2278 20.8111 25.3355 20.8023C27.9604 20.795 30.5851 20.7945 33.21 20.8033C34.4442 20.8047 35.6782 20.7965 36.9124 20.788C37.6676 20.7898 38.4228 20.792 39.178 20.7949C39.6945 20.7874 39.6945 20.7874 40.2215 20.7797C42.5433 20.8031 42.5433 20.8031 43.6409 21.7837C44.1803 22.8303 44.2608 23.5157 44.2515 24.6903C44.2502 25.0717 44.2489 25.4532 44.2476 25.8462C44.2394 26.2414 44.2312 26.6367 44.2227 27.0439C44.2221 27.6387 44.2221 27.6387 44.2214 28.2455C44.1877 31.55 44.1877 31.55 43.4273 32.7165C42.6312 33.1146 42.148 33.0941 41.2596 33.0954C40.9446 33.0968 40.6295 33.0981 40.3048 33.0995C39.9581 33.0993 39.6113 33.0992 39.254 33.099C38.8897 33.1001 38.5253 33.1013 38.1499 33.1025C37.3568 33.105 36.5637 33.1068 35.7705 33.108C34.5167 33.1103 33.2629 33.1156 32.009 33.1218C28.4434 33.1394 24.8778 33.1556 21.3121 33.1606C19.1332 33.1637 16.9544 33.1738 14.7755 33.1879C13.9435 33.192 13.1114 33.1937 12.2793 33.193C11.1173 33.1922 9.95556 33.1996 8.79355 33.2089C8.44746 33.2067 8.10137 33.2044 7.7448 33.2022C7.27074 33.2084 7.27074 33.2084 6.78712 33.2148C6.51229 33.2156 6.23747 33.2164 5.95432 33.2172C5.18826 33.3311 5.18826 33.3311 4.65579 34.0239C4.19049 34.8134 4.11806 35.2448 4.12261 36.1535C4.12161 36.4317 4.1206 36.71 4.11957 36.9967C4.1237 37.2943 4.12784 37.592 4.1321 37.8986C4.13272 38.2066 4.13335 38.5145 4.134 38.8318C4.13625 39.4818 4.1409 40.1318 4.1478 40.7818C4.15824 41.7777 4.16152 42.7735 4.1635 43.7695C4.16657 44.4012 4.17004 45.0328 4.17396 45.6645C4.17539 45.9628 4.17681 46.2611 4.17828 46.5684C4.1831 46.9843 4.1831 46.9843 4.18803 47.4085C4.19031 47.6521 4.1926 47.8957 4.19496 48.1467C4.22069 48.8662 4.22069 48.8662 4.57691 49.7973C16.4028 49.9079 28.2288 50.0184 40.4131 50.1322C40.4131 48.6955 40.4131 47.2587 40.4131 45.7783C30.0239 45.7783 19.6348 45.7783 8.93083 45.7783C8.93083 42.9047 8.93083 40.0311 8.93083 37.0705C10.1466 37.0705 11.3623 37.0705 12.6149 37.0705C12.6149 38.7283 12.6149 40.3862 12.6149 42.0942C12.9938 42.0913 13.3726 42.0883 13.763 42.0852C17.3309 42.0581 20.8988 42.038 24.4668 42.0248C26.3012 42.0178 28.1356 42.0083 29.97 41.9932C31.7398 41.9786 33.5095 41.9706 35.2794 41.9671C35.9551 41.9647 36.6308 41.9598 37.3065 41.9526C38.2519 41.9429 39.1971 41.9415 40.1426 41.9421C40.4227 41.9373 40.7029 41.9325 40.9916 41.9276C42.2109 41.9362 42.9386 41.9813 43.9361 42.7135C44.6012 43.6795 44.6002 44.3285 44.5982 45.4957C44.5984 45.8934 44.5987 46.291 44.5989 46.7007C44.5922 47.1147 44.5855 47.5287 44.5786 47.9553C44.581 48.3693 44.5833 48.7833 44.5858 49.2099C44.5617 52.6286 44.5617 52.6286 43.4273 53.8163C42.7044 53.9849 42.7044 53.9849 41.8496 53.9865C41.5252 53.9902 41.2008 53.994 40.8666 53.9979C40.3334 53.9938 40.3334 53.9938 39.7894 53.9897C39.4147 53.992 39.0399 53.9944 38.6538 53.9968C37.4107 54.0027 36.1679 53.9988 34.9249 53.9943C34.0617 53.9952 33.1985 53.9965 32.3353 53.9981C30.5235 54.0001 28.7118 53.9974 26.9 53.991C24.8101 53.9837 22.7204 53.9861 20.6306 53.9934C18.6168 54.0003 16.6031 53.9995 14.5894 53.9956C13.7344 53.9947 12.8794 53.9958 12.0244 53.9989C10.8267 54.0023 9.62922 53.9971 8.43148 53.9897C8.07942 53.9924 7.72735 53.9951 7.36461 53.9979C5.02158 53.971 3.10127 53.6175 1.35362 51.9611C-0.117817 50.3101 -0.014629 48.4301 0.0123525 46.3226C0.0115447 45.9598 0.0107369 45.5969 0.00990462 45.2231C0.0102316 44.4586 0.0147004 43.6941 0.023064 42.9296C0.0345572 41.763 0.0299778 40.5972 0.0234728 39.4306C0.0257834 38.6857 0.0290229 37.9409 0.0332849 37.1961C0.0316237 36.8492 0.0299626 36.5024 0.0282511 36.145C0.0623041 34.0422 0.308479 32.7507 1.56265 31.042C3.03489 29.9002 4.18774 29.3249 6.0455 29.3271C6.34559 29.3266 6.64569 29.3262 6.95488 29.3257C7.4474 29.3275 7.4474 29.3275 7.94988 29.3294C8.29629 29.3293 8.6427 29.3293 8.99961 29.3292C10.1467 29.3294 11.2938 29.332 12.4409 29.3347C13.2354 29.3353 14.0299 29.3358 14.8245 29.3361C16.9173 29.3374 19.0101 29.3407 21.1029 29.3444C23.2378 29.3478 25.3727 29.3493 27.5076 29.351C31.6978 29.3546 35.888 29.3603 40.0781 29.3674C40.0781 27.8201 40.0781 26.2727 40.0781 24.6785C39.6393 24.6815 39.2005 24.6845 38.7484 24.6875C34.6092 24.7147 30.4699 24.7348 26.3306 24.7479C24.2026 24.7549 22.0747 24.7644 19.9468 24.7796C17.8925 24.7942 15.8382 24.8022 13.7839 24.8056C13.0009 24.8081 12.2179 24.8129 11.4349 24.8202C10.3365 24.8299 9.2384 24.8312 8.13999 24.8306C7.81766 24.8354 7.49533 24.8403 7.16323 24.8452C5.1318 24.8328 3.59044 24.5023 1.89757 23.3389C0.603551 21.9785 0.18536 20.9301 0.163703 19.0762C0.159404 18.7553 0.155106 18.4344 0.150677 18.1037C0.148203 17.7573 0.145729 17.4109 0.14318 17.0539C0.140476 16.6967 0.137773 16.3394 0.134988 15.9713C0.130354 15.2145 0.126762 14.4578 0.124128 13.701C0.118368 12.5469 0.103669 11.3931 0.0888864 10.2391C0.0854942 9.50347 0.0826421 8.76778 0.0803826 8.0321C0.0745188 7.68838 0.0686551 7.34466 0.0626136 6.99053C0.0686258 4.99547 0.145117 3.39668 1.56265 1.90416C3.88805 0.337088 5.9861 -0.0146275 8.73958 0.012888Z" fill="#FF7047"/>
</svg>
