<svg width="54" height="54" viewBox="0 0 54 54" fill="none" xmlns="http://www.w3.org/2000/svg">
<path d="M22.1807 37.0241C24.8448 35.416 27.8528 34.9267 31.2047 35.5563C34.6335 36.2011 37.4466 38.081 39.644 41.196C42.1988 44.8117 44.7065 48.5437 47.1671 52.392C47.2962 52.5943 47.2428 52.6967 47.0069 52.6992L43.4986 52.7182C43.4366 52.7182 43.3756 52.7009 43.3219 52.6682C43.2682 52.6356 43.2238 52.5886 43.1932 52.5323L41.3385 49.1341C41.3184 49.0974 41.2903 49.0657 41.2565 49.0415C41.2227 49.0173 41.184 49.0011 41.1432 48.9942C41.1025 48.9872 41.0607 48.9897 41.021 49.0015C40.9813 49.0133 40.9447 49.0339 40.914 49.062C38.1232 51.6132 35.0072 53.1695 31.5659 53.7308C29.4729 54.0696 26.9962 54.0886 24.1359 53.7877C22.1024 53.5753 20.1112 53.1569 18.1621 52.5323C16.1113 51.8775 14.2739 51.0229 12.6501 49.9685C7.90537 46.8863 4.84895 42.397 3.48089 36.5007C2.83782 33.7295 2.52498 30.9179 2.54236 28.0658C2.57712 22.9128 2.54236 17.7611 2.43808 12.6106C2.43717 12.5536 2.42004 12.4983 2.38888 12.4517C2.35771 12.4051 2.31392 12.3693 2.26304 12.3489C1.75653 12.1543 1.28603 12.1151 0.851525 12.2314C0.235772 12.3957 -0.0460347 12.2124 0.00610565 11.6814C0.0107301 11.6307 0.0357986 11.5836 0.0764224 11.5493C0.117046 11.5149 0.170313 11.4958 0.22584 11.4956C5.7403 11.4678 11.256 11.4602 16.773 11.4728C17.3018 11.4728 17.5042 11.6599 17.38 12.0342C17.3646 12.0818 17.3317 12.1237 17.2857 12.1542C17.2398 12.1847 17.183 12.2024 17.123 12.2048L15.3503 12.2845C15.2974 12.2866 15.2467 12.3077 15.2067 12.3443C15.1667 12.3808 15.1398 12.4307 15.1305 12.4855C15.0461 12.9684 15.0039 13.6106 15.0039 14.4122C15.0039 19.6587 15.0002 24.9052 14.9927 30.1518C14.9878 33.3882 15.1938 36.6094 15.611 39.8155C16.1473 43.952 17.9076 47.234 20.892 49.6613C21.8529 50.4426 23.1403 51.0292 24.7542 51.4211C30.5368 52.8294 35.582 51.5298 39.8898 47.5222C39.9765 47.4427 40.0331 47.3347 40.0494 47.2175C40.0658 47.1002 40.0409 46.9811 39.9791 46.8813C39.2268 45.6474 38.4286 44.4287 37.5844 43.2251C36.5342 41.7283 35.5845 40.6372 34.7353 39.952C32.1084 37.8281 28.98 37.1695 25.35 37.9761C22.3681 38.6385 19.8728 40.1328 17.8642 42.459C17.6929 42.6562 17.5774 42.6297 17.5178 42.3793L17.0448 40.4451C16.9381 40.0077 17.056 39.593 17.3986 39.2011C23.4295 32.3111 26.9639 24.5209 28.0018 15.8306C28.6026 10.794 28.8621 5.63339 28.7801 0.348925C28.7791 0.303466 28.7871 0.258263 28.8035 0.21597C28.8199 0.173677 28.8444 0.135147 28.8756 0.102643C28.9069 0.0701384 28.9442 0.0443153 28.9853 0.026689C29.0265 0.00906259 29.0707 -1.12184e-05 29.1153 1.0409e-08H33.0557C33.1558 5.60144e-06 33.2518 0.0406461 33.323 0.113087C33.3941 0.185528 33.4345 0.283913 33.4355 0.386853C33.4877 5.39824 33.8477 10.2921 34.5156 15.0683C35.7123 23.617 38.7476 31.4109 43.6215 38.4501C46.8666 43.1379 50.2756 47.7308 53.8485 52.2289C54.1092 52.5551 54.0335 52.7182 53.6213 52.7182H49.2378C49.0851 52.7183 48.935 52.6806 48.8006 52.6086C48.6662 52.5365 48.5516 52.4322 48.4669 52.3048C45.6041 48.0469 42.7674 43.8433 39.9568 39.6941C38.0922 36.9457 36.7688 34.8104 35.9867 33.2883C34.0625 29.5563 32.6857 25.6979 31.8564 21.7131C31.4294 19.6675 31.0321 17.0304 30.6646 13.8015C30.6578 13.7448 30.6419 13.6924 30.6185 13.6494C30.5951 13.6063 30.5648 13.5738 30.5306 13.555C30.4387 13.507 30.3841 13.5715 30.3667 13.7484C29.7783 19.6675 28.2513 25.3174 25.7858 30.6979C24.7802 32.8977 23.5127 34.9293 21.9833 36.7927C21.6034 37.2554 21.6692 37.3326 22.1807 37.0241Z" fill="#F6B200"/>
<path d="M49.7555 12.4438C49.7629 18.2516 49.7319 24.0595 49.6624 29.8673C49.6177 33.7434 48.7946 37.435 47.1931 40.9419C47.1777 40.9767 47.1536 41.0066 47.1231 41.0288C47.0926 41.0509 47.0569 41.0646 47.0193 41.0684C46.9818 41.0723 46.9437 41.0661 46.9089 41.0506C46.8741 41.0351 46.8437 41.0107 46.8207 40.9799L45.5768 39.2959C45.5225 39.223 45.4857 39.1387 45.4695 39.0497C45.4533 38.9607 45.4582 38.8696 45.4837 38.7839C46.1888 36.392 46.5377 33.9887 46.5302 31.574C46.5054 25.2276 46.4793 18.8825 46.452 12.5386C46.4522 12.485 46.4341 12.433 46.4008 12.3915C46.3675 12.35 46.3211 12.3216 46.2695 12.311C45.5842 12.1669 45.0318 12.1404 44.6122 12.2314C43.9294 12.378 43.6662 12.1934 43.8226 11.6776C43.8386 11.625 43.8714 11.579 43.9163 11.5462C43.9612 11.5135 44.0158 11.4957 44.0722 11.4956L52.0347 11.4918C52.0952 11.4917 52.1537 11.5082 52.2028 11.5393C52.2519 11.5703 52.2893 11.6145 52.3103 11.6663C52.3972 11.8888 52.36 12.0632 52.1986 12.1897C52.0993 12.268 51.9516 12.2971 51.7554 12.2769C51.1546 12.2112 50.5512 12.1998 49.9454 12.2428C49.8941 12.2457 49.8458 12.2681 49.8104 12.3055C49.7751 12.3429 49.7554 12.3924 49.7555 12.4438Z" fill="#F6B200"/>
</svg>
